<svg xmlns="http://www.w3.org/2000/svg" fill="white" viewBox="0 0 479.99 479.99" width="512px" height="512px"><path d="M 264.91797 0.021484375 C 262.81325 0.10959326 260.68636 0.48871875 258.5918 1.1835938 C 246.2788 5.2695938 235.5333 11.838984 226.6543 20.708984 C 223.5283 23.831984 223.52644 28.896484 226.64844 32.021484 C 229.76944 35.146484 234.83594 35.150344 237.96094 32.027344 C 245.06394 24.932344 253.69991 19.665141 263.62891 16.369141 C 267.01491 15.247141 270.666 16.819344 272.125 20.027344 C 273.367 22.760344 272.75175 25.912047 270.59375 27.873047 C 258.47075 38.885047 253.80355 54.796656 257.68555 70.597656 C 249.77455 76.199656 244.03119 83.400437 239.99219 90.023438 C 234.00119 80.197438 224.26881 69.089797 209.25781 63.841797 C 189.63881 56.983797 168.10389 62.974172 155.46289 71.951172 C 150.60389 75.402172 146.25852 79.932406 142.47852 85.441406 C 136.39852 82.445406 129.95781 80.794906 123.50781 80.628906 C 122.84481 80.608906 107.28075 80.288156 92.59375 91.285156 C 78.42175 101.89716 68.850578 125.25523 65.892578 155.99023 L 61.689453 155.99023 C 40.169453 155.99023 22.662109 173.49758 22.662109 195.01758 L 22.662109 197.01953 C 22.662109 216.59453 37.150797 232.84505 55.966797 235.62305 L 78.3125 369.69727 C 81.5795 389.30227 93.084953 406.66222 109.87695 417.32422 C 113.60595 419.69322 118.54897 418.58937 120.91797 414.85938 C 123.28697 411.13038 122.18313 406.18541 118.45312 403.81641 C 105.49412 395.58741 96.616703 382.19341 94.095703 367.06641 L 72.259766 236.04688 L 405.6875 236.04688 L 383.85156 367.06641 C 379.49156 393.22941 357.07478 412.21875 330.55078 412.21875 C 316.22178 412.21875 315.25266 411.84763 312.72266 413.39062 C 311.21166 414.30762 310.09828 415.68148 309.48828 417.14648 C 297.46528 445.60248 269.74456 463.98828 238.85156 463.98828 C 196.58756 463.98828 162.20313 429.6048 162.20312 387.3418 C 162.20312 345.0788 196.58856 310.69336 238.85156 310.69336 C 272.28056 310.69336 301.61094 332.05656 311.83594 363.85156 C 313.18894 368.05756 317.69439 370.37053 321.90039 369.01953 C 326.10639 367.66653 328.41941 363.15913 327.06641 358.95312 C 314.70641 320.51713 279.25556 294.69336 238.85156 294.69336 C 187.76556 294.69336 146.20508 336.2568 146.20508 387.3418 C 146.20508 438.4268 187.76656 479.98828 238.85156 479.98828 C 274.40356 479.98828 306.46895 459.83475 322.00195 428.21875 L 330.55078 428.21875 C 364.92878 428.21875 393.98377 403.60531 399.63477 369.69531 L 421.9375 235.87109 C 441.7565 234.02909 457.32617 217.31153 457.32617 197.01953 L 457.32617 195.01758 C 457.32617 173.49758 439.81883 155.99023 418.29883 155.99023 L 354.88867 155.99023 C 354.75567 133.81723 351.34159 114.6115 345.05859 99.5625 C 348.91459 97.7265 352.88831 96.727047 356.94531 96.623047 C 357.05131 96.633047 367.70469 96.53075 377.80469 104.09375 C 382.91769 107.92275 387.53148 115.09961 391.14648 124.84961 C 392.34248 128.07561 395.39844 130.07031 398.64844 130.07031 C 404.19544 130.07031 408.08944 124.52211 406.14844 119.28711 C 401.39444 106.46511 395.08553 97.045109 387.39453 91.287109 C 372.70753 80.289109 357.13881 80.612906 356.50781 80.628906 C 350.03381 80.795906 343.57919 82.449172 337.49219 85.451172 C 333.72719 79.958172 329.39739 75.411172 324.52539 71.951172 C 312.27439 63.249172 291.66588 57.356094 272.54688 63.246094 C 271.37687 54.336094 274.39652 46.036797 281.35352 39.716797 C 288.67652 33.064797 290.82141 22.49125 286.69141 13.40625 C 282.74997 4.73525 274.03841 -0.3603208 264.91797 0.021484375 z M 289.57422 76.871094 C 299.53635 77.055387 309.08453 80.606516 315.26172 84.994141 C 330.01872 95.475141 338.65681 121.71528 338.88281 155.98828 L 287.76953 155.98828 C 283.35153 155.98828 279.76953 159.57028 279.76953 163.98828 C 279.76953 168.40628 283.35153 171.98828 287.76953 171.98828 L 418.29883 171.98828 C 430.99683 171.98828 441.32617 182.31958 441.32617 195.01758 L 441.32617 197.01953 C 441.32617 209.71753 430.99683 220.04687 418.29883 220.04688 L 61.691406 220.04688 C 48.993406 220.04688 38.664063 209.71753 38.664062 197.01953 L 38.664062 195.01758 C 38.664062 182.31958 48.993406 171.98828 61.691406 171.98828 L 239.99414 171.98828 C 244.41214 171.98828 247.99414 168.40628 247.99414 163.98828 L 247.99414 110.14844 C 250.50314 103.10444 258.48677 85.070313 276.00977 78.945312 C 280.43164 77.399687 285.04598 76.787324 289.57422 76.871094 z M 190.41602 76.873047 C 194.94427 76.789277 199.55828 77.401641 203.98047 78.947266 C 221.50347 85.072266 229.48614 103.10639 231.99414 110.15039 L 231.99414 155.99023 L 81.978516 155.99023 C 84.619516 131.12923 92.112547 111.63675 102.18555 104.09375 C 112.25155 96.55575 122.99331 96.599047 123.07031 96.623047 C 127.10731 96.727047 131.07378 97.724594 134.92578 99.558594 C 132.31378 105.81259 130.18366 112.78531 128.59766 120.44531 C 127.70166 124.77131 130.48259 129.00634 134.80859 129.90234 C 139.10659 130.79234 143.36363 128.04345 144.26562 123.68945 C 148.10163 105.16045 155.17652 91.780094 164.72852 84.996094 C 170.9057 80.608469 180.45386 77.05734 190.41602 76.873047 z M 238.85156 332.19727 C 234.43356 332.19727 230.85156 335.77927 230.85156 340.19727 C 230.85156 344.61527 234.43356 348.19727 238.85156 348.19727 C 260.43556 348.19727 277.99414 365.7578 277.99414 387.3418 C 277.99414 408.9258 260.43556 426.48633 238.85156 426.48633 C 217.26756 426.48633 199.70703 408.9258 199.70703 387.3418 C 199.70703 382.9238 196.12503 379.3418 191.70703 379.3418 C 187.28903 379.3418 183.70703 382.9238 183.70703 387.3418 C 183.70703 417.7488 208.44456 442.48633 238.85156 442.48633 C 269.25856 442.48633 293.99414 417.7488 293.99414 387.3418 C 293.99414 356.9348 269.25856 332.19727 238.85156 332.19727 z"/></svg>